<svg width="11" height="11" viewBox="0 0 11 11" fill="none" xmlns="http://www.w3.org/2000/svg">
<path d="M5.49999 10.375C4.37214 10.3749 3.2792 9.98381 2.40739 9.26827C1.53558 8.55272 0.938856 7.55702 0.718877 6.45083C0.498899 5.34464 0.669278 4.1964 1.20099 3.20174C1.73271 2.20709 2.59285 1.42757 3.63487 0.996002C4.67689 0.564438 5.83631 0.507534 6.91559 0.83498C7.99486 1.16243 8.92721 1.85396 9.55377 2.79176C10.1803 3.72957 10.4623 4.85561 10.3518 5.97803C10.2412 7.10045 9.74481 8.14979 8.94727 8.94727C8.49563 9.4014 7.95839 9.76142 7.36666 10.0065C6.77493 10.2516 6.14046 10.3768 5.49999 10.375ZM5.49999 3.62507C5.12917 3.62507 4.76667 3.73504 4.45834 3.94106C4.15001 4.14708 3.90969 4.4399 3.76779 4.7825C3.62588 5.1251 3.58875 5.50208 3.66109 5.86578C3.73343 6.22948 3.91201 6.56356 4.17422 6.82577C4.43643 7.08798 4.77051 7.26655 5.13421 7.3389C5.49791 7.41124 5.8749 7.37412 6.2175 7.23221C6.56009 7.0903 6.85292 6.84998 7.05894 6.54165C7.26496 6.23332 7.37492 5.87083 7.37492 5.5C7.37431 5.00292 7.17659 4.52638 6.8251 4.1749C6.47361 3.82341 5.99707 3.62567 5.49999 3.62507Z" fill="#6557F9"/>
</svg>
