<svg width="20" height="20" viewBox="0 0 20 20" fill="none" xmlns="http://www.w3.org/2000/svg">
<path d="M5.5 19.5C3.95411 19.4935 2.59326 18.4795 2.145 17H0V15H2.145C2.6599 13.273 4.40204 12.2192 6.1707 12.565C7.93936 12.9108 9.15633 14.5431 8.98285 16.3369C8.80937 18.1307 7.30215 19.4995 5.5 19.5ZM5.5 14.5C4.67157 14.5 4 15.1716 4 16C4 16.8284 4.67157 17.5 5.5 17.5C6.32843 17.5 7 16.8284 7 16C7 15.1716 6.32843 14.5 5.5 14.5ZM20 17H10V15H20V17ZM14.5 13.5C12.6979 13.4995 11.1906 12.1307 11.0172 10.3369C10.8437 8.54314 12.0606 6.91084 13.8293 6.56503C15.598 6.21923 17.3401 7.27297 17.855 8.99999H20V11H17.855C17.4067 12.4795 16.0459 13.4935 14.5 13.5ZM14.5 8.49999C13.6716 8.49999 13 9.17157 13 9.99999C13 10.8284 13.6716 11.5 14.5 11.5C15.3284 11.5 16 10.8284 16 9.99999C16 9.17157 15.3284 8.49999 14.5 8.49999ZM10 11H0V8.99999H10V11ZM7.5 7.49999C5.69785 7.49953 4.19063 6.1307 4.01715 4.33692C3.84367 2.54314 5.06064 0.910839 6.8293 0.565034C8.59796 0.219229 10.3401 1.27297 10.855 2.99999H20V4.99999H10.855C10.4065 6.47928 9.04578 7.49321 7.5 7.49999ZM7.5 2.49999C6.68198 2.5011 6.01568 3.15742 6.00223 3.97534C5.98878 4.79325 6.63315 5.47112 7.45069 5.49911C8.26824 5.52711 8.95746 4.89491 9 4.07799V4.36799V3.99999C9 3.17157 8.32843 2.49999 7.5 2.49999ZM3 4.99999H0V2.99999H3V4.99999Z" fill="#2E3A59"/>
</svg>
