<svg xmlns="http://www.w3.org/2000/svg" viewBox="0 0 56.7804 53.483">
  <defs>
    <style>
      .cls-1 {
        fill: #ff9700;
      }
    </style>
  </defs>
  <title>icon_actee_logo</title>
  <g id="Layer_2" data-name="Layer 2">
    <g id="Layer_1-2" data-name="Layer 1">
      <path class="cls-1" d="M52.7924,22.3988c-1.9018-11.24-10.8289-18.34-24.4022-19.77V0C16.19,0,6.0564,10.02,3.9937,22.3974,1.7349,22.9053,0,25.8429,0,29.4015c0,3.9157,2.0984,7.09,4.6868,7.09a3.136,3.136,0,0,0,.5325-.0489c3.5524,9.96,12.584,17.04,23.1709,17.04s19.6185-7.08,23.171-17.04a3.1341,3.1341,0,0,0,.5325.0489c2.5884,0,4.6867-3.1742,4.6867-7.09C56.78,25.846,55.0485,22.91,52.7924,22.3988Z"/>
    </g>
  </g>
</svg>
