<svg width="16" height="10" viewBox="0 0 16 10" fill="none" xmlns="http://www.w3.org/2000/svg">
<path d="M14.5144 3.8992H12.2072C11.9764 2.95809 11.4366 2.12159 10.6742 1.52354C9.9118 0.925491 8.97081 0.600464 8.00182 0.600464C7.03283 0.600464 6.09184 0.925491 5.32941 1.52354C4.56699 2.12159 4.0272 2.95809 3.79642 3.8992H1.48562C1.19388 3.8992 0.914092 4.01509 0.707802 4.22138C0.501512 4.42767 0.38562 4.70746 0.38562 4.9992C0.38562 5.29094 0.501512 5.57073 0.707802 5.77702C0.914092 5.98331 1.19388 6.0992 1.48562 6.0992H3.79442C4.02461 7.04105 4.56425 7.87838 5.32689 8.47708C6.08953 9.07578 7.03105 9.4012 8.00062 9.4012C8.97019 9.4012 9.91171 9.07578 10.6743 8.47708C11.437 7.87838 11.9766 7.04105 12.2068 6.0992H14.514C14.8058 6.0992 15.0855 5.98331 15.2918 5.77702C15.4981 5.57073 15.614 5.29094 15.614 4.9992C15.614 4.70746 15.4981 4.42767 15.2918 4.22138C15.0855 4.01509 14.8058 3.8992 14.514 3.8992H14.5144ZM8.00002 7.1964C7.56374 7.20203 7.13563 7.07781 6.77012 6.83952C6.40462 6.60123 6.11823 6.25963 5.94735 5.85816C5.77647 5.4567 5.72883 5.01348 5.81049 4.58487C5.89214 4.15626 6.0994 3.76161 6.40591 3.45108C6.71243 3.14056 7.10435 2.92819 7.53187 2.84098C7.95938 2.75376 8.40318 2.79564 8.80683 2.96129C9.21049 3.12693 9.55577 3.40887 9.79879 3.77124C10.0418 4.13362 10.1716 4.56008 10.1716 4.9964C10.1736 5.28348 10.119 5.56814 10.011 5.83411C9.90288 6.10008 9.74344 6.34214 9.54176 6.54646C9.34008 6.75077 9.10011 6.91334 8.83557 7.02486C8.57103 7.13638 8.2871 7.19467 8.00002 7.1964Z" fill="#FA5879"/>
</svg>
