<svg width="11" height="11" viewBox="0 0 11 11" fill="none" xmlns="http://www.w3.org/2000/svg">
<path d="M8.75 7.9375C8.75 7.48877 8.38623 7.125 7.9375 7.125C7.48877 7.125 7.125 7.48877 7.125 7.9375C7.125 8.38623 7.48877 8.75 7.9375 8.75C8.38623 8.75 8.75 8.38623 8.75 7.9375Z" fill="#FE93AF"/>
<path d="M7.12495 6.47495C7.12495 6.11597 6.83394 5.82495 6.47495 5.82495C6.11597 5.82495 5.82495 6.11597 5.82495 6.47495C5.82495 6.83394 6.11597 7.12495 6.47495 7.12495C6.83394 7.12495 7.12495 6.83394 7.12495 6.47495Z" fill="#FE93AF"/>
<path d="M10.05 9.4C10.05 9.04101 9.75899 8.75 9.4 8.75C9.04101 8.75 8.75 9.04101 8.75 9.4C8.75 9.75899 9.04101 10.05 9.4 10.05C9.75899 10.05 10.05 9.75899 10.05 9.4Z" fill="#FE93AF"/>
<path d="M10.05 6.31245C10.05 6.04321 9.83169 5.82495 9.56245 5.82495C9.29321 5.82495 9.07495 6.04321 9.07495 6.31245C9.07495 6.58169 9.29321 6.79995 9.56245 6.79995C9.83169 6.79995 10.05 6.58169 10.05 6.31245Z" fill="#FE93AF"/>
<path d="M6.79995 9.56245C6.79995 9.29321 6.58169 9.07495 6.31245 9.07495C6.04321 9.07495 5.82495 9.29321 5.82495 9.56245C5.82495 9.83169 6.04321 10.05 6.31245 10.05C6.58169 10.05 6.79995 9.83169 6.79995 9.56245Z" fill="#FE93AF"/>
<path d="M9.39995 0.949951H6.47495C6.30256 0.949951 6.13723 1.01843 6.01533 1.14033C5.89343 1.26223 5.82495 1.42756 5.82495 1.59995V4.52495C5.82495 4.69734 5.89343 4.86267 6.01533 4.98457C6.13723 5.10647 6.30256 5.17495 6.47495 5.17495H9.39995C9.57234 5.17495 9.73767 5.10647 9.85957 4.98457C9.98147 4.86267 10.05 4.69734 10.05 4.52495V1.59995C10.05 1.42756 9.98147 1.26223 9.85957 1.14033C9.73767 1.01843 9.57234 0.949951 9.39995 0.949951ZM8.74995 3.71245C8.74995 3.75555 8.73283 3.79688 8.70236 3.82736C8.67188 3.85783 8.63055 3.87495 8.58745 3.87495H7.28745C7.24435 3.87495 7.20302 3.85783 7.17255 3.82736C7.14207 3.79688 7.12495 3.75555 7.12495 3.71245V2.41245C7.12495 2.36935 7.14207 2.32802 7.17255 2.29755C7.20302 2.26707 7.24435 2.24995 7.28745 2.24995H8.58745C8.63055 2.24995 8.67188 2.26707 8.70236 2.29755C8.73283 2.32802 8.74995 2.36935 8.74995 2.41245V3.71245ZM4.52495 0.949951H1.59995C1.42756 0.949951 1.26223 1.01843 1.14033 1.14033C1.01843 1.26223 0.949951 1.42756 0.949951 1.59995V4.52495C0.949951 4.69734 1.01843 4.86267 1.14033 4.98457C1.26223 5.10647 1.42756 5.17495 1.59995 5.17495H4.52495C4.69734 5.17495 4.86267 5.10647 4.98457 4.98457C5.10647 4.86267 5.17495 4.69734 5.17495 4.52495V1.59995C5.17495 1.42756 5.10647 1.26223 4.98457 1.14033C4.86267 1.01843 4.69734 0.949951 4.52495 0.949951ZM3.87495 3.71245C3.87495 3.75555 3.85783 3.79688 3.82736 3.82736C3.79688 3.85783 3.75555 3.87495 3.71245 3.87495H2.41245C2.36935 3.87495 2.32802 3.85783 2.29755 3.82736C2.26707 3.79688 2.24995 3.75555 2.24995 3.71245V2.41245C2.24995 2.36935 2.26707 2.32802 2.29755 2.29755C2.32802 2.26707 2.36935 2.24995 2.41245 2.24995H3.71245C3.75555 2.24995 3.79688 2.26707 3.82736 2.29755C3.85783 2.32802 3.87495 2.36935 3.87495 2.41245V3.71245ZM4.52495 5.82495H1.59995C1.42756 5.82495 1.26223 5.89343 1.14033 6.01533C1.01843 6.13723 0.949951 6.30256 0.949951 6.47495V9.39995C0.949951 9.57234 1.01843 9.73767 1.14033 9.85957C1.26223 9.98147 1.42756 10.05 1.59995 10.05H4.52495C4.69734 10.05 4.86267 9.98147 4.98457 9.85957C5.10647 9.73767 5.17495 9.57234 5.17495 9.39995V6.47495C5.17495 6.30256 5.10647 6.13723 4.98457 6.01533C4.86267 5.89343 4.69734 5.82495 4.52495 5.82495ZM3.87495 8.58745C3.87495 8.63055 3.85783 8.67188 3.82736 8.70236C3.79688 8.73283 3.75555 8.74995 3.71245 8.74995H2.41245C2.36935 8.74995 2.32802 8.73283 2.29755 8.70236C2.26707 8.67188 2.24995 8.63055 2.24995 8.58745V7.28745C2.24995 7.24435 2.26707 7.20302 2.29755 7.17255C2.32802 7.14207 2.36935 7.12495 2.41245 7.12495H3.71245C3.75555 7.12495 3.79688 7.14207 3.82736 7.17255C3.85783 7.20302 3.87495 7.24435 3.87495 7.28745V8.58745Z" fill="#FE93AF"/>
</svg>
