<svg width="12" height="11" viewBox="0 0 12 11" fill="none" xmlns="http://www.w3.org/2000/svg">
	<path d="M9.34395 10.8752H4.01759C3.56352 10.8752 3.12806 10.6949 2.80699 10.3739C2.48592 10.053 2.30554 9.6177 2.30554 9.16381V3.83945C2.30554 3.38556 2.48592 2.95026 2.80699 2.62931C3.12806 2.30836 3.56352 2.12805 4.01759 2.12805H9.34395C9.79801 2.12805 10.2335 2.30836 10.5545 2.62931C10.8756 2.95026 11.056 3.38556 11.056 3.83945V9.16381C11.056 9.6177 10.8756 10.053 10.5545 10.3739C10.2335 10.6949 9.79801 10.8752 9.34395 10.8752Z" fill="#0063FB"/>
	<path d="M3.44684 1.3675H9.05588C8.93747 1.03405 8.71876 0.745398 8.42975 0.541127C8.14073 0.336857 7.79557 0.226978 7.44161 0.226562H2.11524C1.66118 0.226562 1.22572 0.40687 0.904645 0.72782C0.583574 1.04877 0.403198 1.48407 0.403198 1.93796V7.26231C0.403614 7.61614 0.513535 7.96117 0.717882 8.25008C0.922229 8.53898 1.21099 8.75761 1.54456 8.87597V3.26905C1.54456 2.76473 1.74498 2.28106 2.10172 1.92445C2.45847 1.56784 2.94232 1.3675 3.44684 1.3675Z" fill="#0063FB"/>
</svg>
